<?xml version="1.0" standalone="no"?>
<!DOCTYPE svg PUBLIC "-//W3C//DTD SVG 1.1//EN" "http://www.w3.org/Graphics/SVG/1.1/DTD/svg11.dtd">
<svg xmlns:dc="http://purl.org/dc/elements/1.1/" xmlns:cc="http://creativecommons.org/ns#" xmlns:rdf="http://www.w3.org/1999/02/22-rdf-syntax-ns#" xmlns:svg="http://www.w3.org/2000/svg" xmlns="http://www.w3.org/2000/svg" xmlns:sodipodi="http://sodipodi.sourceforge.net/DTD/sodipodi-0.dtd" xmlns:inkscape="http://www.inkscape.org/namespaces/inkscape" width="210" height="297" viewBox="0 0 210 297" version="1.1" id="svg8" inkscape:version="1.0.1 (3bc2e813f5, 2020-09-07)" sodipodi:docname="toukouryuuryoku.svg">
  <defs id="defs2">
    <inkscape:path-effect effect="fillet_chamfer" id="path-effect984" is_visible="true" lpeversion="1" satellites_param="F,0,0,1,0,0,0,1 @ F,0,0,1,0,6,0,1 @ F,0,0,1,0,6,0,1 @ F,0,0,1,0,6,0,1 @ F,0,0,1,0,6,0,1 @ F,0,0,1,0,6,0,1 @ F,0,0,1,0,6,0,1" unit="px" method="auto" mode="F" radius="6" chamfer_steps="1" flexible="false" use_knot_distance="true" apply_no_radius="true" apply_with_radius="true" only_selected="false" hide_knots="false"/>
    <inkscape:path-effect effect="fillet_chamfer" id="path-effect972" is_visible="true" lpeversion="1" satellites_param="F,0,0,1,0,0,0,1 @ F,0,0,1,0,0,0,1 @ F,0,0,1,0,0,0,1 @ F,0,0,1,0,0,0,1 @ F,0,0,1,0,0,0,1 @ F,0,0,1,0,0,0,1 @ F,0,0,1,0,0,0,1" unit="px" method="auto" mode="F" radius="0" chamfer_steps="1" flexible="false" use_knot_distance="true" apply_no_radius="true" apply_with_radius="true" only_selected="false" hide_knots="false"/>
  </defs>
  <sodipodi:namedview id="base" pagecolor="#ffffff" bordercolor="#666666" borderopacity="1.0" inkscape:pageopacity="0" inkscape:pageshadow="2" inkscape:zoom="0.35355339" inkscape:cx="-167.70555" inkscape:cy="860.33949" inkscape:document-units="px" inkscape:current-layer="layer1" inkscape:document-rotation="0" showgrid="false" showborder="true" inkscape:showpageshadow="false" inkscape:window-width="1920" inkscape:window-height="986" inkscape:window-x="-11" inkscape:window-y="-11" inkscape:window-maximized="1"/>
  <metadata id="metadata5">
    <rdf:RDF>
      <cc:Work rdf:about="">
        <dc:format>image/svg+xml</dc:format>
        <dc:type rdf:resource="http://purl.org/dc/dcmitype/StillImage"/>
        <dc:title/>
      </cc:Work>
    </rdf:RDF>
  </metadata>
  <g inkscape:label="Layer 1" inkscape:groupmode="layer" id="layer1">
    <g id="g1789" transform="matrix(0.54829729,0,0,0.54829729,22.605115,4.378195)">
      <g id="g1718">
        <rect style="fill:#000000;stroke:none;stroke-width:2.64583" id="rect833" width="42.862499" height="8.7312498" x="-7.6729169" y="115.62291" ry="4.3656249"/>
        <rect style="fill:#000000;stroke:none;stroke-width:2.24827" id="rect835" width="8.9930916" height="130.17499" x="9.792325" y="84.931252" ry="4.4965458"/>
        <rect style="fill:#000000;stroke:none;stroke-width:3.36301" id="rect833-3" width="66.194664" height="9.1342163" x="-153.5735" y="66.2864" transform="matrix(0.43952966,-0.89822808,0.75150708,0.65972503,0,0)" ry="4.5671082"/>
        <rect style="fill:#000000;stroke:none;stroke-width:2.68684" id="rect833-3-0" width="43.412472" height="8.8902073" x="-136.16177" y="62.252777" transform="matrix(-0.60690047,-0.79477785,-0.64572485,0.76357018,0,0)" ry="4.4451036"/>
        <rect style="fill:#000000;stroke:none;stroke-width:2.64583" id="rect883" width="0.57715833" height="5.793828" x="9.7736158" y="122.65437"/>
        <path id="rect835-0" style="fill:#000000;stroke:none;stroke-width:2.24827" d="m 65.352087,87.312508 c 2.491086,0 4.496545,2.005459 4.496545,4.496545 0,0 5.55625,100.279817 -26.458333,123.695437 -2.010675,1.47062 -3.989834,2.64447 -6.613212,1.45384 -2.268394,-1.02951 -2.696286,-4.92508 0.398246,-8.06842 30.781202,-31.26674 23.680208,-117.080857 23.680208,-117.080857 0,-2.491086 2.005459,-4.496545 4.496546,-4.496545 z" sodipodi:nodetypes="sssssss"/>
        <g id="g1013" style="stroke-width:8.73125;stroke-miterlimit:4;stroke-dasharray:none">
          <path style="fill:none;stroke:#000000;stroke-width:8.73125;stroke-linecap:butt;stroke-linejoin:miter;stroke-miterlimit:4;stroke-dasharray:none;stroke-opacity:1" d="m 83.354649,86.616544 2.751532,112.377696 c 0,0 -0.41957,8.3 4.070557,10.35798 4.490127,2.05797 26.940772,0.93544 26.940772,0.93544 0,0 4.8643,0.18709 6.73519,-5.61266 1.87088,-5.79975 1.12253,-9.54152 1.12253,-9.54152 v 0" id="path970" sodipodi:nodetypes="ccscscc"/>
          <path id="path976" style="fill:#000000;fill-opacity:1;stroke:none;stroke-width:8.73125;stroke-miterlimit:4;stroke-dasharray:none;stroke-opacity:1" d="m 83.322045,82.589274 a 4.3656249,4.3656249 0 0 0 -4.365625,4.365625 4.3656249,4.3656249 0 0 0 4.365625,4.365625 4.3656249,4.3656249 0 0 0 4.365625,-4.365625 4.3656249,4.3656249 0 0 0 -4.365625,-4.365625 z"/>
          <circle style="fill:#000000;fill-opacity:1;stroke:none;stroke-width:8.73125;stroke-miterlimit:4;stroke-dasharray:none;stroke-opacity:1" id="path976-7" cx="125.01562" cy="195.19635" r="4.3656249"/>
        </g>
        <circle style="fill:#000000;fill-opacity:1;stroke:none;stroke-width:8.73125;stroke-miterlimit:4;stroke-dasharray:none;stroke-opacity:1" id="path1015" cx="48.268875" cy="133.95549" r="4.8643055"/>
        <circle style="fill:#000000;fill-opacity:1;stroke:none;stroke-width:12.0894;stroke-miterlimit:4;stroke-dasharray:none;stroke-opacity:1" id="path1015-7" cx="46.397991" cy="167.25728" r="6.7351918"/>
        <circle style="fill:#000000;fill-opacity:1;stroke:none;stroke-width:18.8058;stroke-miterlimit:4;stroke-dasharray:none;stroke-opacity:1" id="path1015-71" cx="110.75649" cy="167.25726" r="10.476966"/>
        <circle style="fill:#000000;fill-opacity:1;stroke:none;stroke-width:18.8058;stroke-miterlimit:4;stroke-dasharray:none;stroke-opacity:1" id="path1015-71-1" cx="110.00814" cy="130.21371" r="10.476966"/>
      </g>
    </g>
    <g id="g1772" transform="matrix(0.54829729,0,0,0.54829729,22.605115,4.378195)">
      <g id="g1731">
        <rect style="fill:#000000;fill-opacity:1;stroke:none;stroke-width:5.26774;stroke-miterlimit:4;stroke-dasharray:none;stroke-opacity:1" id="rect1134" width="67.496613" height="8.7312498" x="234.235" y="111.87901" ry="4.3656249"/>
        <rect style="fill:#000000;fill-opacity:1;stroke:none;stroke-width:6.32896;stroke-miterlimit:4;stroke-dasharray:none;stroke-opacity:1" id="rect1134-4" width="97.430801" height="8.7312498" x="216.95052" y="193.20001" ry="4.3656249"/>
        <rect style="fill:#000000;fill-opacity:1;stroke:none;stroke-width:5.82077;stroke-miterlimit:4;stroke-dasharray:none;stroke-opacity:1" id="rect1134-8" width="82.412529" height="8.7312498" x="113.77391" y="-269.7879" ry="4.3656249" transform="matrix(-2.9134856e-4,0.99999996,-0.99999991,-4.343456e-4,0,0)"/>
        <rect style="fill:#000000;fill-opacity:1;stroke:none;stroke-width:5.11372;stroke-miterlimit:4;stroke-dasharray:none;stroke-opacity:1" id="rect1134-8-3" width="63.606869" height="8.7312498" x="151.62862" y="-203.13696" ry="4.3656249" transform="matrix(-3.7748715e-4,0.99999993,-0.99999994,-3.3523229e-4,0,0)"/>
        <circle style="fill:#000000;fill-opacity:1;stroke:none;stroke-width:8.73125;stroke-miterlimit:4;stroke-dasharray:none;stroke-opacity:1" id="path1181" cx="178.19687" cy="184.81145" r="9.1281252"/>
        <circle style="fill:#000000;fill-opacity:1;stroke:none;stroke-width:4.93505;stroke-miterlimit:4;stroke-dasharray:none;stroke-opacity:1" id="path1181-6" cx="218.28125" cy="176.21249" r="5.1593752"/>
        <rect style="fill:#000000;fill-opacity:1;stroke:none;stroke-width:4.43174;stroke-miterlimit:4;stroke-dasharray:none;stroke-opacity:1" id="rect1134-1" width="47.77269" height="8.7312498" x="174.88811" y="149.88646" ry="4.3656249"/>
        <rect style="fill:#000000;fill-opacity:1;stroke:none;stroke-width:5.26775;stroke-miterlimit:4;stroke-dasharray:none;stroke-opacity:1" id="rect1134-48" width="67.496613" height="8.7312498" x="7.1451688" y="230.68703" ry="4.3656249" transform="rotate(-46.31254)"/>
        <rect style="fill:#000000;fill-opacity:1;stroke:none;stroke-width:4.43174;stroke-miterlimit:4;stroke-dasharray:none;stroke-opacity:1" id="rect1134-1-8" width="47.77269" height="8.7312498" x="-8.9375439" y="212.77048" ry="4.3656249" transform="rotate(-57.308189)"/>
        <rect style="fill:#000000;fill-opacity:1;stroke:none;stroke-width:3.44555;stroke-miterlimit:4;stroke-dasharray:none;stroke-opacity:1" id="rect1134-1-6" width="28.876734" height="8.7312498" x="211.54567" y="22.746668" ry="4.3656249" transform="rotate(26.981606)"/>
        <rect style="fill:#000000;fill-opacity:1;stroke:none;stroke-width:3.38928;stroke-miterlimit:4;stroke-dasharray:none;stroke-opacity:1" id="rect1134-1-9" width="27.94129" height="8.7312498" x="222.31619" y="-131.46747" ry="4.3656249" transform="rotate(62.908385)"/>
      </g>
    </g>
    <g id="g1809" transform="matrix(0.54829729,0,0,0.54829729,22.605115,4.378195)">
      <rect style="fill:#000000;fill-opacity:1;stroke:none;stroke-width:5.11371;stroke-miterlimit:4;stroke-dasharray:none;stroke-opacity:1" id="rect1134-8-3-0" width="63.606869" height="8.7312498" x="312.64911" y="-199.70094" ry="4.3656249" transform="matrix(-3.7748633e-4,0.99999993,-0.99999994,-3.3523238e-4,0,0)"/>
      <circle style="fill:#000000;fill-opacity:1;stroke:none;stroke-width:8.73125;stroke-miterlimit:4;stroke-dasharray:none;stroke-opacity:1" id="path1181-1" cx="174.70007" cy="345.83075" r="9.1281252"/>
      <circle style="fill:#000000;fill-opacity:1;stroke:none;stroke-width:4.93506;stroke-miterlimit:4;stroke-dasharray:none;stroke-opacity:1" id="path1181-6-8" cx="214.78445" cy="337.23181" r="5.1593752"/>
      <rect style="fill:#000000;fill-opacity:1;stroke:none;stroke-width:4.43174;stroke-miterlimit:4;stroke-dasharray:none;stroke-opacity:1" id="rect1134-1-7" width="47.77269" height="8.7312498" x="171.39131" y="310.90576" ry="4.3656249"/>
      <rect style="fill:#000000;fill-opacity:1;stroke:none;stroke-width:5.26775;stroke-miterlimit:4;stroke-dasharray:none;stroke-opacity:1" id="rect1134-48-4" width="67.496613" height="8.7312498" x="-111.70618" y="339.37839" ry="4.3656249" transform="rotate(-46.31254)"/>
      <rect style="fill:#000000;fill-opacity:1;stroke:none;stroke-width:4.43174;stroke-miterlimit:4;stroke-dasharray:none;stroke-opacity:1" id="rect1134-1-8-9" width="47.77269" height="8.7312498" x="-146.33817" y="296.79739" ry="4.3656249" transform="rotate(-57.308189)"/>
      <rect style="fill:#000000;fill-opacity:1;stroke:none;stroke-width:3.44556;stroke-miterlimit:4;stroke-dasharray:none;stroke-opacity:1" id="rect1134-1-6-7" width="28.876734" height="8.7312498" x="281.48465" y="167.82593" ry="4.3656249" transform="rotate(26.981606)"/>
      <rect style="fill:#000000;fill-opacity:1;stroke:none;stroke-width:3.38929;stroke-miterlimit:4;stroke-dasharray:none;stroke-opacity:1" id="rect1134-1-9-8" width="27.94129" height="8.7312498" x="364.0759" y="-55.023781" ry="4.3656249" transform="rotate(62.908386)"/>
      <rect style="fill:#000000;stroke:none;stroke-width:3.13886" id="rect833-4-5" width="60.325001" height="8.7312498" x="229.39375" y="242.75519" ry="4.3656249"/>
      <rect style="fill:#000000;stroke:none;stroke-width:3.13886" id="rect833-4-5-3" width="60.325001" height="8.7312498" x="228.60002" y="264.98022" ry="4.3656249"/>
      <rect style="fill:#000000;stroke:none;stroke-width:3.81914" id="rect833-4-5-3-2" width="89.30677" height="8.7312498" x="227.66408" y="283.50104" ry="4.3656249"/>
      <rect style="fill:#000000;fill-opacity:1;stroke:none;stroke-width:6.04292;stroke-miterlimit:4;stroke-dasharray:none;stroke-opacity:1" id="rect1134-8-3-0-0" width="88.823166" height="8.7312498" x="288.74667" y="-271.1557" ry="4.3656249" transform="matrix(-2.7032052e-4,0.99999996,-0.99999989,-4.6813183e-4,0,0)"/>
      <rect style="fill:#000000;stroke:none;stroke-width:1.68879" id="rect833-4-4" width="17.4625" height="8.7312498" x="253.59109" y="368.96548" ry="4.3656249"/>
      <rect style="fill:#000000;stroke:none;stroke-width:1.38236" id="rect835-4-5-5-3-2" width="8.9930887" height="49.212482" x="280.72565" y="242.75519" ry="4.4965444"/>
      <circle style="fill:#000000;fill-opacity:1;stroke:none;stroke-width:8.73125;stroke-miterlimit:4;stroke-dasharray:none;stroke-opacity:1" id="path1015-2" cx="245.46033" cy="316.55402" r="4.8643055"/>
      <circle style="fill:#000000;fill-opacity:1;stroke:none;stroke-width:12.0894;stroke-miterlimit:4;stroke-dasharray:none;stroke-opacity:1" id="path1015-7-8" cx="243.58945" cy="349.8558" r="6.7351918"/>
      <circle style="fill:#000000;fill-opacity:1;stroke:none;stroke-width:18.8058;stroke-miterlimit:4;stroke-dasharray:none;stroke-opacity:1" id="path1015-71-2" cx="291.85834" cy="350.41708" r="10.476966"/>
      <circle style="fill:#000000;fill-opacity:1;stroke:none;stroke-width:12.0894;stroke-miterlimit:4;stroke-dasharray:none;stroke-opacity:1" id="path1015-7-8-8" cx="290.73578" cy="316.55405" r="6.7351918"/>
    </g>
    <g id="g1758" transform="matrix(0.54829729,0,0,0.54829729,22.605115,4.378195)">
      <rect style="fill:#000000;stroke:none;stroke-width:2.24827" id="rect835-4" width="8.9930906" height="130.17499" x="21.840158" y="247.65001" ry="4.4965453"/>
      <rect style="fill:#000000;stroke:none;stroke-width:2.64583" id="rect833-4-9" width="42.862499" height="8.7312498" x="-131.35652" y="238.36725" ry="4.3656249" transform="rotate(-39.785628)"/>
      <g id="g1743">
        <rect style="fill:#000000;stroke:none;stroke-width:2.64583" id="rect833-4" width="42.862499" height="8.7312498" x="4.3749156" y="278.34167" ry="4.3656249"/>
        <rect style="fill:#000000;stroke:none;stroke-width:3.36301" id="rect833-3-1" width="66.194664" height="9.1342163" x="-272.05725" y="151.61487" transform="matrix(0.43952966,-0.89822808,0.75150708,0.65972503,0,0)" ry="4.5671082"/>
        <rect style="fill:#000000;stroke:none;stroke-width:2.68684" id="rect833-3-0-9" width="43.412472" height="8.8902073" x="-253.16843" y="153.56653" transform="matrix(-0.60690046,-0.79477785,-0.64572486,0.76357017,0,0)" ry="4.4451036"/>
        <rect style="fill:#000000;stroke:none;stroke-width:2.24827" id="rect835-4-5" width="8.9930897" height="130.17499" x="97.103455" y="256.11667" ry="4.4965448"/>
        <rect style="fill:#000000;stroke:none;stroke-width:1.6778" id="rect835-4-5-5" width="8.9930887" height="72.495819" x="53.182617" y="263.52502" ry="4.4965444"/>
        <rect style="fill:#000000;stroke:none;stroke-width:1.81883" id="rect835-4-5-5-3" width="8.9930887" height="85.195816" x="127.26596" y="255.8521" ry="4.4965444"/>
        <rect style="fill:#000000;stroke:none;stroke-width:2.32627" id="rect833-4-6" width="33.133888" height="8.7312498" x="-173.08734" y="285.97275" ry="4.3656249" transform="rotate(-40.457698)"/>
        <rect style="fill:#000000;stroke:none;stroke-width:1.68879" id="rect833-4-4-3" width="17.4625" height="8.7312498" x="116.24398" y="332.92316" ry="4.3656249"/>
        <rect style="fill:#000000;stroke:none;stroke-width:2.47889" id="rect833-4-49" width="37.624016" height="8.7312498" x="97.931313" y="255.24924" ry="4.3656249"/>
        <path id="rect835-0-6" style="fill:#000000;stroke:none;stroke-width:2.1681" d="m 83.106112,263.59527 c 2.491087,0 4.496547,1.86498 4.496547,4.18158 0,0 5.55625,93.25551 -26.458334,115.03094 -2.010675,1.36761 -3.989834,2.45924 -6.613212,1.35201 -2.268394,-0.9574 -2.696286,-4.5801 0.398246,-7.50325 30.781203,-29.0766 23.680208,-108.8797 23.680208,-108.8797 0,-2.3166 2.005459,-4.18158 4.496545,-4.18158 z" sodipodi:nodetypes="sssssss"/>
      </g>
    </g>
  </g>
</svg>